<?xml version="1.0" encoding="UTF-8" standalone="no"?>
<svg
   viewBox="0 0 5000 2922"
   height="2922"
   width="5000"
   id="svg10"
   version="1.1">
  <path
     d="M 939.50604,2922 C 513.40872,2922 0,2579.3387 0,1964.1762 0,1423.983 414.75086,999.4249 954.63099,999.4249 c 436.10501,0 634.86811,244.189 634.86811,244.189 l -296.9243,246.9732 c 0,0 -137.4631,-114.0541 -388.00552,-107.1727 -250.54168,6.8815 -524.05659,240.772 -527.8383,580.6938 -3.78171,339.9217 289.70257,578.0151 566.18285,579.9064 276.48097,1.8907 478.60927,-251.1434 478.60927,-251.1434 l -0.6661,510.6096 c 0,0 -166.0046,118.5192 -481.34884,118.5192 z m 3409.25456,-4.7244 c -392.2049,0 -633.6038,-343.3663 -633.6038,-588.9761 l 345.6721,-1.3748 c 0,0 70.2654,245.0224 304.5745,245.0416 127.4183,0 287.9544,-73.4345 287.9544,-222.0504 0,-84.0269 -51.4981,-240.8995 -313.5337,-240.8995 -465.0858,0 -615.3623,-294.7251 -615.3623,-528.5129 0,-440.0735 416.7077,-581.3741 653.2951,-581.3741 380.3637,0 554.1206,344.7991 554.1206,344.7991 l -281.4768,234.9962 c 0,0 -20.6034,-225.8549 -298.3067,-225.8549 -173.8852,0 -279.2737,88.6068 -279.2737,206.9141 0,188.9002 167.8101,248.9452 302.5074,248.9452 304.5122,0 624.6723,157.2752 624.6723,542.4764 0,349.0559 -309.1841,565.8694 -651.2394,565.8701 z M 1614.1941,1948.5971 c 0,-520.0633 427.4194,-945.6128 973.877,-949.1481 311.1017,0 558.4928,192.8911 558.4928,192.8911 V 0 h 377.9345 v 2872.2831 h -377.0353 l -5.6697,-1034.5882 c -72.5252,-286.7998 -321.5787,-446.7358 -588.9404,-446.7358 -268.9362,0 -549.5416,243.0942 -549.5416,569.5634 0,526.6968 615.6757,602.4407 690.2906,556.444 l -330.7654,376.1585 c -130.9211,0 -750.4998,-262.7145 -748.6425,-944.5279 z" />
</svg>