<?xml version="1.0" encoding="UTF-8"?>
<svg
    viewBox="0 0 5000 2922"
    height="2922"
    width="5000"
    version="1.1"
>
    <path d="m939.5 2922c-426.1 0-939.5-342.7-939.5-957.8 0-540.2 414.8-964.8 954.6-964.8 436.1 0 634.9 244.2 634.9 244.2l-296.9 247s-137.5-114.1-388-107.2c-250.5 6.882-524.1 240.8-527.8 580.7-3.782 339.9 289.7 578 566.2 579.9 276.5 1.891 478.6-251.1 478.6-251.1l-0.6661 510.6s-166 118.5-481.3 118.5zm3409-4.724c-392.2 0-633.6-343.4-633.6-589l345.7-1.375s70.27 245 304.6 245c127.4 0 288-73.43 288-222.1 0-84.03-51.5-240.9-313.5-240.9-465.1 0-615.4-294.7-615.4-528.5 0-440.1 416.7-581.4 653.3-581.4 380.4 0 554.1 344.8 554.1 344.8l-281.5 235s-20.6-225.9-298.3-225.9c-173.9 0-279.3 88.61-279.3 206.9 0 188.9 167.8 248.9 302.5 248.9 304.5 0 624.7 157.3 624.7 542.5 0 349.1-309.2 565.9-651.2 565.9zm-2735-968.7c0-520.1 427.4-945.6 973.9-949.1 311.1 0 558.5 192.9 558.5 192.9v-1192h377.9v2917h-377l-5.67-1080c-72.53-286.8-321.6-446.7-588.9-446.7-268.9 0-549.5 243.1-549.5 569.6 0 526.7 615.7 602.4 690.3 556.4l-330.8 376.2c-130.9 0-750.5-262.7-748.6-944.5z"/>
</svg>