<?xml version="1.0" encoding="UTF-8" standalone="no"?>
<svg
     version="1.1"
     viewBox="0 0 6000 3922"
>
    <path d="M 1439.5,3422 C 1013.4,3422 500,3079.3 500,2464.2 c 0,-540.2 414.8,-964.8 954.6,-964.8 436.1,0 634.9,244.2 634.9,244.2 l -296.9,247 c 0,0 -137.5,-114.1 -388,-107.2 -250.5,6.882 -524.1,240.8 -527.8,580.7 -3.782,339.9 289.7,578 566.2,579.9 276.5,1.891 478.6,-251.1 478.6,-251.1 l -0.6661,510.6 c 0,0 -166,118.5 -481.3,118.5 z" />
    <path d="m 3087.4,1499.476 c 311.1,0 558.5,192.9 558.5,192.9 v -1192 h 377.9 v 2917 h -377 l -5.67,-1080 c -72.53,-286.8 -321.6,-446.7 -588.9,-446.7 -268.9,0 -549.5,243.1 -549.5,569.6 0,526.7 502.0579,593.8962 690.3,556.4 l -330.8,376.2 c -130.9,0 -756.8146,-203.7462 -749.68,-931.4807 0.95,-600.95 428.35,-958.4193 974.85,-961.9193 z" />
    <path d="m 4848.5,3417.276 c -392.2,0 -633.6,-343.4 -633.6,-589 l 345.7,-1.375 c 0,0 70.27,245 304.6,245 127.4,0 288,-73.43 288,-222.1 0,-84.03 -51.5,-240.9 -313.5,-240.9 -465.1,0 -615.4,-294.7 -615.4,-528.5 0,-440.1 416.7,-581.4 653.3,-581.4 380.4,0 554.1,344.8 554.1,344.8 l -281.5,235 c 0,0 -20.6,-225.9 -298.3,-225.9 -173.9,0 -279.3,88.61 -279.3,206.9 0,188.9 167.8,248.9 302.5,248.9 304.5,0 624.7,157.3 624.7,542.5 0,349.1 -309.2,565.9 -651.2,565.9 z" />
</svg>
